# xmcd CD database file
#
# Track frame offsets:
#	150
#	10576
#	23877
#	34940
#	46654
#	60382
#	73249
#	83138
#	95279
#	109747
#	122053
#	133754
#	146623
#	159179
#	172385
#	184468
#	197432
#	210389
#	222550
#	234729
#	245323
#	257762
#
# Disc length: 3596 seconds
#
# Revision: 7
# Processed by: cddbd v1.5.2PL0 Copyright (c) Steve Scherf et al.
# Submitted via: CDex 1.70beta2
#
DISCID=380e0a16
DTITLE=Lightnin' Hopkins - Nothing But The Blues:  Morning Blues - Disc 1
DYEAR=1946
DGENRE=Blues
TTITLE0=Down Now Baby
TTITLE1=L. A. Blues
TTITLE2=Short Haired Women
TTITLE3=Can't Do Like You Used To
TTITLE4=Katie May
TTITLE5=Rocky Mountain Blues
TTITLE6=I Feel So Good
TTITLE7=West Coast Blues
TTITLE8=The Twister
TTITLE9=Big Mama Jump
TTITLE10=Let Me Play With Your Poodle
TTITLE11=Fast Mail Rambler
TTITLE12=Woman Woman Change Your Ways
TTITLE13=Thinkin And Worryin
TTITLE14=Cant Get That Woman Off My Mind
TTITLE15=You're Not Goin' To Worry My Life Anymore
TTITLE16=Picture On The Wall
TTITLE17=Someday Baby Blues
TTITLE18=Noghtmare Blues
TTITLE19=Youre Gonna Miss Me
TTITLE20=Sugar Mama
TTITLE21=Come Back Baby
EXTD=Katie May, Feel So Bad, Blues (That Mean Old Twister), I Can't Stay Here In Your Town, Can't Do Like You Used To, West Coast Blues\nLos Angeles, August 09, 1946: Ligthnin' Hopkins (vcl)(g), Wilson 'Thunder' Smith (p)(vcl), unknown (d]\n\nShort Haire
EXTD=d Woman, L. A. Blues, Big MamaJump (Little Mama Blues), Down Baby, Let Me Play With Your Poodle, Fast Mail Rambler, Thinkin' And Worryin'\nLos Angeles, August 15, 1947: Ligthnin' Hopkins (vcl)(g), Wilson 'Thunder' Smith (p)(vcl), unknown (d]\n\nCan'
EXTD=t Get That Woman Off My Mind, Woman Woman, Picture On The Wall, You're Not Nogin' To Worry My Life Anymore\nHouston, Texas, November, 1947\nLigthnin' Hopkins (vcl)(g]\n\nYou're Gonna Miss Me, Sugar OnMy Mind, Nightmare Blues, Someday Baby, Come Back
EXTD=Baby\nHouston, Texas, February 25, 1948\nLigthnin' Hopkins (vcl)(g) YEAR: 1946
EXTT0=(Sam 'Lightnin' Hopkins)
EXTT1=(Wilson Smith)
EXTT2=(Sam 'Lightnin' Hopkins)
EXTT3=(Wilson Smith)
EXTT4=(Sam 'Lightnin' Hopkins)
EXTT5=(Sam 'Lightnin' Hopkins)
EXTT6=(Sam 'Lightnin' Hopkins/Mark McGormick)
EXTT7=(Wilson Smith)
EXTT8=(Sam 'Lightnin' Hopkins)
EXTT9=(Sam 'Lightnin' Hopkins)
EXTT10=(H. Whittaker)
EXTT11=(Sam 'Lightnin' Hopkins)
EXTT12=(Sam 'Lightnin' Hopkins)
EXTT13=(Sam 'Lightnin' Hopkins)
EXTT14=(Sam 'Lightnin' Hopkins)
EXTT15=(Sam 'Lightnin' Hopkins)
EXTT16=(Sam 'Lightnin' Hopkins)
EXTT17=(Sam 'Lightnin' Hopkins)
EXTT18=(Sam 'Lightnin' Hopkins)
EXTT19=(Sam 'Lightnin' Hopkins)
EXTT20=(Sam 'Lightnin' Hopkins)
EXTT21=(Sam 'Lightnin' Hopkins)
PLAYORDER=
